<?xml version="1.0" encoding="UTF-8"?>
<svg width="15px" height="22px" viewBox="0 0 15 22" version="1.1" xmlns="http://www.w3.org/2000/svg" xmlns:xlink="http://www.w3.org/1999/xlink">
    <title>fire</title>
    <g id="Page-1" stroke="none" stroke-width="1" fill="none" fill-rule="evenodd">
        <g id="KWG---Results-&amp;-Filters---Place" transform="translate(-977.000000, -532.000000)" fill="#00021F" fill-rule="nonzero">
            <g id="Group-10" transform="translate(861.000000, 473.000000)">
                <g id="Group-8" transform="translate(0.000000, 59.000000)">
                    <g id="Fires" transform="translate(116.000000, 0.000000)">
                        <g id="fire" transform="translate(7.500000, 11.000000) scale(-1, 1) translate(-7.500000, -11.000000) ">
                            <path d="M2.49439615,9.12590081 C6.60950439,5.0643493 7.20995279,1.65366681 5.82421742,0 C5.82421742,0 16.2988292,4.28232302 10.1375435,14.2153455 C9.08279617,15.9020348 6.44886783,17.8944044 7.82582571,22 C7.82565923,22 -5.35404219,18.328741 2.49456659,9.12590081 L2.49439615,9.12590081 Z" id="Path"></path>
                            <path d="M8.85594496,21.7978817 C8.63074698,20.9645613 7.62611654,19.1500212 10.6899714,15.5404833 C12.3271008,13.6166596 13.4475941,9.39084358 12.9018133,8.38151759 C12.9018133,8.38151759 18.1308104,15.2526494 12.0792433,19.3675286 C8.49142352,21.8134379 8.85594496,21.7978817 8.85594496,21.7978817 L8.85594496,21.7978817 Z" id="Path"></path>
                        </g>
                    </g>
                </g>
            </g>
        </g>
    </g>
</svg>