<?xml version="1.0" encoding="UTF-8"?>
<svg width="24px" height="20px" viewBox="0 0 24 20" version="1.1" xmlns="http://www.w3.org/2000/svg" xmlns:xlink="http://www.w3.org/1999/xlink">
    <title>hurricane</title>
    <g id="Page-1" stroke="none" stroke-width="1" fill="none" fill-rule="evenodd">
        <g id="KWG---Results-&amp;-Filters---Place" transform="translate(-921.000000, -533.000000)" fill="#00021F" fill-rule="nonzero">
            <g id="Group-10" transform="translate(861.000000, 473.000000)">
                <g id="Group-8" transform="translate(0.000000, 59.000000)">
                    <g id="hurricane" transform="translate(60.000000, 1.000000)">
                        <path d="M23.8919244,4.19874129 C23.3340969,3.66651268 22.7439981,3.16831554 22.1250565,2.70668955 C20.3104887,1.39355704 18.2080071,0.521182958 15.9883544,0.160762517 C12.6510325,-0.365709526 9.23665354,0.414563692 6.62023017,2.30080915 C5.6691892,2.98300483 4.87097651,3.85190804 4.27547769,4.85304301 C3.6801503,5.85400867 3.30047963,6.96578827 3.16020848,8.11841411 C2.86573335,10.5519187 3.52750632,13.0043015 5.0091048,14.9704236 C3.51262206,15.4489384 1.74943985,15.542017 0.475685243,15.1909891 C0.312459854,15.146181 0.139021627,15.2147984 0.0524717992,15.35881 C-0.0339108863,15.5026565 -0.0119809299,15.6860243 0.106043121,15.8060446 C0.839798805,16.5153723 1.63818293,17.1562138 2.49095267,17.7206961 C4.1258637,18.7793968 5.96306005,19.4956663 7.88922765,19.8256531 C11.5232061,20.4322938 15.6236408,19.4546253 18.3296355,16.911475 C19.4370618,15.8744461 20.2528459,14.5712183 20.6973165,13.1292826 C21.1416156,11.6873468 21.1993869,10.1560996 20.8647247,8.68571969 C20.5653939,7.3490953 19.9894979,6.08802587 19.1733709,4.98153724 C20.6268252,4.55445065 22.316679,4.4828745 23.5242194,4.81553219 C23.6877791,4.86067046 23.8617188,4.79155736 23.9481014,4.64688167 C24.034317,4.50237064 24.0113842,4.31851177 23.8921858,4.19896986 L23.8919244,4.19874129 Z M11.999948,7.40688532 C12.6960324,7.40688532 13.3634882,7.68019534 13.8557015,8.16628675 C14.347872,8.65237816 14.6243,9.31175921 14.6243,9.99928818 C14.6241326,10.6867748 14.347572,11.3459866 13.8554015,11.8321203 C13.3632311,12.318254 12.6956038,12.5913947 11.9994766,12.5913947 C11.3033923,12.5912294 10.6359365,12.3182498 10.1437232,11.8319933 C9.65155272,11.3459019 9.37495327,10.6866478 9.37495327,9.9991612 C9.37579031,9.31184386 9.65268843,8.65292842 10.1447089,8.16683701 C10.6368793,7.68091491 11.3040351,7.40756257 11.999948,7.40688532 L11.999948,7.40688532 Z" id="Shape"></path>
                    </g>
                </g>
            </g>
        </g>
    </g>
</svg>