<svg width="313" height="120" viewBox="0 0 313 120" fill="none" xmlns="http://www.w3.org/2000/svg">
<path d="M79.56 25.05C82.2667 24.3833 85.8667 23.6633 90.36 22.89C95.4861 22.0809 100.671 21.6996 105.86 21.75C110.328 21.5929 114.781 22.3588 118.94 24C122.208 25.283 125.064 27.4336 127.2 30.22C129.396 33.0122 130.919 36.2734 131.65 39.75C132.527 43.7972 132.953 47.9291 132.92 52.07V89.17H121.1V54.66C121.15 51.1657 120.852 47.6752 120.21 44.24C119.852 41.7371 118.939 39.3457 117.54 37.24C116.286 35.4705 114.51 34.1381 112.46 33.43C109.94 32.5135 107.27 32.0826 104.59 32.16C103.31 32.16 102 32.16 100.65 32.28C99.3 32.4 97.98 32.5 96.71 32.67C95.44 32.84 94.42 32.88 93.4 33.05L91.4 33.43V89.21H79.56V25.05Z" fill="white"/>
<path d="M280.28 88.65C277.9 82.55 275.357 75.6033 272.65 67.81C269.943 60.0167 267.53 51.8433 265.41 43.29C263.21 51.7567 260.797 59.93 258.17 67.81C255.543 75.69 253.043 82.6367 250.67 88.65H240.38C236.493 79.9233 232.7 69.97 229 58.79C225.3 47.61 221.767 35.54 218.4 22.58H231.11C231.95 26.58 232.95 30.9133 234.11 35.58C235.27 40.2467 236.497 44.9133 237.79 49.58C239.123 54.2467 240.52 58.7367 241.98 63.05C243.44 67.3633 244.797 71.1333 246.05 74.36C247.49 70.36 248.887 66.1667 250.24 61.78C251.593 57.3933 252.95 52.9033 254.31 48.31C255.577 43.7433 256.76 39.2967 257.86 34.97C258.96 30.6433 259.96 26.5367 260.86 22.65H270.65C271.41 26.4633 272.34 30.57 273.44 34.97C274.54 39.37 275.727 43.8167 277 48.31C278.333 52.77 279.667 57.2367 281 61.71C282.333 66.1833 283.773 70.3767 285.32 74.29C286.587 71.07 287.9 67.3 289.26 62.98C290.62 58.66 292.017 54.17 293.45 49.51C294.783 44.8433 296.053 40.1767 297.26 35.51C298.467 30.8433 299.483 26.51 300.31 22.51H312.51C309.23 35.5033 305.727 47.5967 302 58.79C298.273 69.9833 294.463 79.9367 290.57 88.65H280.28Z" fill="white"/>
<path d="M80.59 99.22L77.12 100.67L77.6 96.94L80.59 99.22Z" fill="black"/>
<path d="M77.19 100.85L76.93 100.65L77.42 96.91L77.72 96.79L80.72 99.07V99.4L77.19 100.85ZM77.75 97.28L77.35 100.37L80.22 99.17L77.75 97.28Z" fill="black"/>
<path d="M155.22 102.55H158.35V113C158.09 113.08 157.72 113.18 157.24 113.28C156.76 113.38 156.24 113.5 155.56 113.61C154.88 113.72 154.24 113.81 153.48 113.88C152.722 113.957 151.961 113.994 151.2 113.99C149.734 114.012 148.277 113.751 146.91 113.22C145.659 112.729 144.529 111.971 143.6 111C142.637 109.95 141.904 108.71 141.45 107.36C140.921 105.747 140.668 104.057 140.7 102.36C140.666 100.655 140.954 98.9583 141.55 97.36C142.065 95.9991 142.847 94.7547 143.85 93.7C144.812 92.719 145.971 91.9523 147.25 91.45C148.578 90.9282 149.993 90.6668 151.42 90.68C152.32 90.6702 153.22 90.7337 154.11 90.87C154.786 90.9771 155.454 91.1274 156.11 91.32C156.578 91.4585 157.036 91.6289 157.48 91.83L158.2 92.22L157.2 94.83C156.434 94.3621 155.596 94.0242 154.72 93.83C153.689 93.558 152.627 93.4202 151.56 93.42C150.495 93.408 149.439 93.6192 148.46 94.04C147.534 94.4318 146.715 95.0386 146.07 95.81C145.385 96.644 144.866 97.6011 144.54 98.63C144.165 99.8337 143.982 101.089 144 102.35C143.985 103.579 144.14 104.804 144.46 105.99C144.738 107.013 145.222 107.969 145.88 108.8C146.509 109.583 147.314 110.207 148.23 110.62C149.27 111.074 150.396 111.296 151.53 111.27C152.299 111.279 153.068 111.229 153.83 111.12C154.292 111.061 154.75 110.97 155.2 110.85L155.22 102.55Z" fill="white"/>
<path d="M169.24 96.43C169.533 96.4123 169.827 96.4123 170.12 96.43C170.45 96.43 170.78 96.5 171.12 96.56C171.46 96.62 171.74 96.66 172.01 96.72C172.209 96.7541 172.407 96.8008 172.6 96.86L172.09 99.47C171.027 99.131 169.916 98.9688 168.8 98.99C168.245 98.99 167.692 99.0503 167.15 99.17C166.603 99.2767 166.243 99.3567 166.07 99.41V113.48H163.07V97.48C163.932 97.1781 164.814 96.9375 165.71 96.76C166.872 96.5247 168.055 96.4141 169.24 96.43Z" fill="white"/>
<path d="M180.9 96.36C181.92 96.3398 182.935 96.4989 183.9 96.83C184.665 97.0988 185.352 97.5522 185.9 98.15C186.405 98.7259 186.771 99.4102 186.97 100.15C187.197 100.994 187.308 101.866 187.3 102.74V113.21L186.22 113.39C185.76 113.47 185.22 113.53 184.66 113.6L182.77 113.78C182.1 113.78 181.42 113.86 180.77 113.86C179.892 113.866 179.016 113.769 178.16 113.57C177.421 113.396 176.722 113.084 176.1 112.65C175.513 112.224 175.048 111.651 174.75 110.99C174.402 110.211 174.235 109.363 174.26 108.51C174.237 107.68 174.434 106.859 174.83 106.13C175.19 105.469 175.718 104.913 176.36 104.52C177.052 104.09 177.814 103.783 178.61 103.61C179.5 103.415 180.409 103.318 181.32 103.32C181.62 103.32 181.93 103.32 182.25 103.37L183.17 103.5L183.93 103.65L184.38 103.74V102.91C184.377 102.416 184.324 101.923 184.22 101.44C184.114 100.976 183.917 100.537 183.64 100.15C183.334 99.7622 182.94 99.4535 182.49 99.25C181.896 99 181.254 98.884 180.61 98.91C179.739 98.9003 178.868 98.9706 178.01 99.12C177.447 99.213 176.894 99.3604 176.36 99.56L176 97.1C176.624 96.8693 177.271 96.7051 177.93 96.61C178.91 96.4345 179.904 96.3508 180.9 96.36ZM181.15 111.36C181.86 111.36 182.49 111.36 183.04 111.36C183.501 111.336 183.959 111.276 184.41 111.18V106.18C184.09 106.044 183.754 105.949 183.41 105.9C182.827 105.822 182.239 105.785 181.65 105.79C181.172 105.79 180.694 105.824 180.22 105.89C179.741 105.946 179.275 106.081 178.84 106.29C178.447 106.49 178.105 106.777 177.84 107.13C177.543 107.534 177.395 108.029 177.42 108.53C177.32 109.403 177.703 110.262 178.42 110.77C179.261 111.208 180.203 111.415 181.15 111.37V111.36Z" fill="white"/>
<path d="M207.05 105.19C207.06 106.378 206.892 107.562 206.55 108.7C206.252 109.713 205.752 110.655 205.08 111.47C204.441 112.243 203.634 112.858 202.72 113.27C201.71 113.716 200.614 113.938 199.51 113.92C198.641 113.935 197.775 113.803 196.95 113.53C196.371 113.346 195.814 113.098 195.29 112.79V119.49H192.29V97.3C193 97.13 193.88 96.94 194.95 96.73C196.165 96.517 197.397 96.4166 198.63 96.43C199.818 96.4101 200.999 96.6171 202.11 97.04C203.104 97.4258 204.004 98.019 204.75 98.78C205.504 99.5649 206.08 100.503 206.44 101.53C206.858 102.704 207.064 103.944 207.05 105.19ZM203.92 105.19C204.028 103.559 203.513 101.947 202.48 100.68C201.483 99.6135 200.069 99.0363 198.61 99.1C197.905 99.088 197.2 99.1214 196.5 99.2C196.091 99.2433 195.686 99.3202 195.29 99.43V110C195.772 110.365 196.304 110.658 196.87 110.87C197.589 111.156 198.357 111.298 199.13 111.29C199.89 111.31 200.644 111.149 201.33 110.82C201.928 110.52 202.444 110.077 202.83 109.53C203.236 108.949 203.522 108.293 203.67 107.6C203.844 106.809 203.928 106 203.92 105.19Z" fill="white"/>
<path d="M211.27 113.53V89.05L214.27 88.54V97.1C215.449 96.6665 216.694 96.4398 217.95 96.43C219.079 96.3964 220.204 96.5867 221.26 96.99C222.088 97.3251 222.815 97.8695 223.37 98.57C223.916 99.2885 224.299 100.118 224.49 101C224.71 102.029 224.817 103.078 224.81 104.13V113.53H221.81V104.77C221.822 103.885 221.752 103.002 221.6 102.13C221.499 101.498 221.264 100.894 220.91 100.36C220.593 99.9016 220.143 99.5523 219.62 99.36C218.978 99.1345 218.3 99.0294 217.62 99.05C217.286 99.0503 216.952 99.0703 216.62 99.11L215.62 99.26C215.34 99.3032 215.063 99.3633 214.79 99.44C214.607 99.4832 214.427 99.5366 214.25 99.6V113.51L211.27 113.53Z" fill="white"/>
<path d="M14.06 98.86C13.16 101.74 12.25 104.407 11.33 106.86C10.41 109.31 9.48 111.69 8.56 114.01H5.44C4.3 110.723 3.3 107.257 2.44 103.61C1.58 99.9633 0.766667 95.9867 0 91.68H3.28C3.58 93.36 3.89 95.03 4.22 96.68C4.55 98.33 4.87 99.98 5.22 101.56C5.57 103.14 5.91 104.65 6.22 106.08C6.53 107.51 6.92 108.85 7.29 110.08C8.14 107.83 9.06 105.36 10.02 102.66C10.98 99.96 11.89 97.19 12.73 94.31H15.43C16.27 97.19 17.18 99.9733 18.16 102.66C19.14 105.347 20.0867 107.823 21 110.09C21.35 108.89 21.69 107.57 22 106.09C22.31 104.61 22.68 103.15 23 101.57C23.32 99.99 23.66 98.36 24 96.68C24.34 95 24.63 93.32 24.93 91.68H28.1C27.33 95.97 26.5 99.94 25.64 103.59C24.78 107.24 23.77 110.7 22.64 113.99H19.54C18.5933 111.67 17.67 109.287 16.77 106.84C15.87 104.393 14.9667 101.733 14.06 98.86Z" fill="white"/>
<path d="M31.57 114V89.53L34.57 89.01V97.57C35.1475 97.3515 35.7432 97.1842 36.35 97.07C36.974 96.9594 37.6063 96.9025 38.24 96.9C39.3695 96.8664 40.4944 97.0567 41.55 97.46C42.3723 97.7866 43.0982 98.3165 43.66 99C44.2027 99.7194 44.5816 100.549 44.77 101.43C44.9906 102.455 45.0979 103.501 45.09 104.55V114H42.09V105.24C42.1021 104.355 42.0318 103.472 41.88 102.6C41.7789 101.968 41.5436 101.364 41.19 100.83C40.8706 100.374 40.421 100.026 39.9 99.83C39.2562 99.613 38.5791 99.5115 37.9 99.53C37.5658 99.5303 37.2319 99.5503 36.9 99.59C36.55 99.59 36.23 99.68 35.9 99.74C35.57 99.8 35.31 99.85 35.07 99.91L34.54 100.07V114H31.57Z" fill="white"/>
<path d="M49 105.65C48.9718 104.328 49.1888 103.013 49.64 101.77C50.0236 100.739 50.6121 99.797 51.37 99C52.0581 98.2868 52.8897 97.7278 53.81 97.36C54.714 97.001 55.6773 96.8144 56.65 96.81C58.6074 96.6906 60.5131 97.4669 61.83 98.92C63.03 100.327 63.63 102.467 63.63 105.34V105.84C63.6408 106.027 63.6408 106.213 63.63 106.4H52.14C52.147 107.871 52.6829 109.291 53.65 110.4C54.7835 111.39 56.2704 111.877 57.77 111.75C58.6643 111.767 59.5573 111.676 60.43 111.48C60.9851 111.354 61.5274 111.176 62.05 110.95L62.47 113.46C61.8589 113.736 61.218 113.941 60.56 114.07C59.5394 114.298 58.4956 114.405 57.45 114.39C56.1589 114.42 54.8744 114.196 53.67 113.73C52.6692 113.336 51.7727 112.717 51.05 111.92C50.3467 111.121 49.8247 110.18 49.52 109.16C49.164 108.024 48.9886 106.84 49 105.65ZM60.51 104C60.5796 102.807 60.2254 101.627 59.51 100.67C58.8092 99.8004 57.7356 99.3174 56.62 99.37C55.9932 99.3555 55.3723 99.4928 54.81 99.77C54.3029 100.014 53.8478 100.353 53.47 100.77C53.0993 101.208 52.8112 101.709 52.62 102.25C52.4088 102.814 52.2678 103.402 52.2 104H60.51Z" fill="white"/>
<path d="M74.12 96.9C74.38 96.9 74.67 96.9 75.01 96.9L76.01 97.03L76.89 97.19L77.49 97.34L77 100C76.6136 99.8718 76.2195 99.7683 75.82 99.69C75.1249 99.5567 74.4177 99.4963 73.71 99.51C73.1518 99.51 72.5952 99.5703 72.05 99.69L70.98 99.93V114H67.98V98C68.843 97.6989 69.7249 97.455 70.62 97.27C71.7711 97.0282 72.9438 96.9042 74.12 96.9Z" fill="white"/>
<path d="M79.43 105.65C79.4048 104.328 79.6252 103.012 80.08 101.77C80.4542 100.742 81.0325 99.7993 81.78 99C82.471 98.2856 83.3062 97.7265 84.23 97.36C85.1306 97.0011 86.0905 96.8145 87.06 96.81C89.0174 96.6906 90.9231 97.4669 92.24 98.92C93.44 100.33 94.05 102.47 94.05 105.34V105.84C94.061 106.027 94.061 106.213 94.05 106.4H82.56C82.5616 107.872 83.0982 109.294 84.07 110.4C85.2029 111.391 86.6903 111.878 88.19 111.75C89.081 111.767 89.9707 111.676 90.84 111.48C91.3979 111.352 91.9433 111.174 92.47 110.95L92.89 113.46C92.2748 113.735 91.6308 113.939 90.97 114.07C89.9528 114.298 88.9123 114.405 87.87 114.39C86.5757 114.419 85.2882 114.195 84.08 113.73C83.0809 113.333 82.185 112.714 81.46 111.92C80.7567 111.121 80.2347 110.18 79.93 109.16C79.5857 108.022 79.4171 106.839 79.43 105.65ZM90.92 104C90.9958 102.806 90.641 101.625 89.92 100.67C89.2119 99.794 88.1245 99.3136 87 99.38C86.37 99.3655 85.7458 99.5027 85.18 99.78C84.6744 100.026 84.2198 100.365 83.84 100.78C83.476 101.235 83.1919 101.749 83 102.3C82.7985 102.852 82.6642 103.426 82.6 104.01L90.92 104Z" fill="white"/>
<path d="M65.86 0C63.1933 2.89333 60.2167 6.1 56.93 9.62C53.6433 13.14 50.18 16.7533 46.54 20.46C42.9333 24.1533 39.3433 27.7867 35.77 31.36C32.1967 34.9333 28.84 38.2467 25.7 41.3C29.7688 44.1898 33.6437 47.3433 37.3 50.74C41.38 54.48 45.38 58.48 49.3 62.74C53.22 67 56.8867 71.3333 60.3 75.74C63.4562 79.7441 66.3329 83.9608 68.91 88.36H54.38C51.6898 84.1898 48.7546 80.1827 45.59 76.36C42.2567 72.32 38.75 68.4533 35.07 64.76C31.39 61.0667 27.65 57.6233 23.85 54.43C20.3716 51.5136 16.6962 48.8406 12.85 46.43V88.34H0.460007V0H12.82V39C15.8 36.1933 19.0733 33.0267 22.64 29.5C26.2067 25.9733 29.7333 22.43 33.22 18.87C36.7 15.3033 39.9933 11.88 43.1 8.6C46.2067 5.32 48.82 2.45333 50.94 0H65.86Z" fill="white"/>
<path d="M151.494 69.8784L135.134 81.4873L137.912 85.4019L154.272 73.7929L151.494 69.8784Z" fill="#42D6ED"/>
<path d="M246.79 110.84C255.511 110.84 262.58 103.677 262.58 94.84C262.58 86.0034 255.511 78.84 246.79 78.84C238.069 78.84 231 86.0034 231 94.84C231 103.677 238.069 110.84 246.79 110.84Z" fill="white"/>
<path d="M246.79 113.23C239.33 113.307 232.562 108.872 229.655 102.002C226.747 95.1313 228.276 87.1854 233.525 81.8844C238.775 76.5833 246.705 74.9764 253.604 77.816C260.502 80.6557 265.004 87.3798 265 94.84C265.044 104.945 256.895 113.175 246.79 113.23ZM246.79 81.23C241.271 81.1448 236.248 84.4037 234.077 89.4783C231.905 94.553 233.016 100.437 236.889 104.37C240.761 108.303 246.627 109.506 251.735 107.414C256.843 105.321 260.179 100.35 260.18 94.83C260.224 87.3841 254.236 81.306 246.79 81.24V81.23Z" fill="#42D6ED"/>
<path d="M127.39 98.65C132.681 98.65 136.97 94.3027 136.97 88.94C136.97 83.5773 132.681 79.23 127.39 79.23C122.099 79.23 117.81 83.5773 117.81 88.94C117.81 94.3027 122.099 98.65 127.39 98.65Z" fill="white"/>
<path d="M127.39 101.05C122.482 101.095 118.033 98.1725 116.124 93.651C114.215 89.1295 115.223 83.9029 118.678 80.4166C122.133 76.9303 127.35 75.8739 131.889 77.7417C136.427 79.6095 139.39 84.032 139.39 88.94C139.412 95.5944 134.044 101.011 127.39 101.05ZM127.39 81.63C124.422 81.5772 121.717 83.3244 120.544 86.0513C119.372 88.7783 119.965 91.9435 122.045 94.0612C124.125 96.1789 127.279 96.8285 130.027 95.7051C132.774 94.5817 134.57 91.9084 134.57 88.94C134.603 84.9398 131.39 81.6685 127.39 81.63Z" fill="#42D6ED"/>
<path d="M163.017 61.6536L146.659 73.2654L149.438 77.1794L165.795 65.5676L163.017 61.6536Z" fill="#42D6ED"/>
<path d="M209.718 67.3134L207.028 71.2891L231.006 87.5112L233.696 83.5356L209.718 67.3134Z" fill="#42D6ED"/>
<path d="M181 24.66C171.546 25.3262 163.282 31.2808 159.658 40.0375C156.033 48.7943 157.672 58.8476 163.89 66C164.07 66.22 167.89 71.23 172.45 77.14C177.37 83.57 180.78 87.98 180.96 88.14C181.899 89.0507 183.391 89.0507 184.33 88.14C184.51 87.98 187.92 83.57 192.84 77.14C197.36 71.23 201.22 66.22 201.4 66C207.998 58.3971 209.393 47.5783 204.938 38.5508C200.483 29.5232 191.048 24.0483 181 24.66ZM184 36.75C185.127 36.8904 186.221 37.229 187.23 37.75C190.181 39.1743 192.289 41.9048 192.92 45.12C193.069 45.7756 193.119 46.4496 193.07 47.12C193.127 48.1341 193.001 49.1501 192.7 50.12C191.798 53.1601 189.571 55.63 186.64 56.84C185.628 57.2617 184.554 57.5118 183.46 57.58C181.854 57.7108 180.239 57.4571 178.75 56.84C175.773 55.617 173.521 53.096 172.64 50C172.339 49.0301 172.213 48.0141 172.27 47C172.221 46.3296 172.271 45.6556 172.42 45C172.969 42.2515 174.592 39.8358 176.93 38.29C177.983 37.6199 179.138 37.1267 180.35 36.83C181.554 36.6041 182.787 36.577 184 36.75Z" fill="#42D6ED"/>
<path d="M201.822 61.9817L199.132 65.9574L223.11 82.1795L225.8 78.2039L201.822 61.9817Z" fill="#42D6ED"/>
</svg>
