<?xml version="1.0" encoding="UTF-8"?>
<svg width="20px" height="20px" viewBox="0 0 20 20" version="1.1" xmlns="http://www.w3.org/2000/svg" xmlns:xlink="http://www.w3.org/1999/xlink">
    <title>earthquake</title>
    <g id="Page-1" stroke="none" stroke-width="1" fill="none" fill-rule="evenodd">
        <g id="KWG---Results-&amp;-Filters---Place" transform="translate(-1028.000000, -590.000000)" fill="#00021F" fill-rule="nonzero">
            <g id="Group-10" transform="translate(861.000000, 473.000000)">
                <g id="Group-7" transform="translate(0.000000, 116.000000)">
                    <g id="Group-26" transform="translate(167.000000, 1.000000)">
                        <g id="Group" transform="translate(10.000000, 10.000000) scale(-1, 1) rotate(-180.000000) translate(-10.000000, -10.000000) ">
                            <path d="M9.77718369,19.9218753 C9.70682065,19.882813 7.49820284,18.0039151 4.86740676,15.7500188 C1.47825342,12.8437817 0.0709925225,11.6172246 0.0358109999,11.5312875 C-0.0658245097,11.2930073 0.0553562902,11.0391022 0.31726318,10.9414464 C0.379808109,10.918009 0.727714277,10.8984778 1.13034726,10.8984778 L1.83006865,10.8984778 L1.83006865,5.60553253 C1.83006865,0.679773099 1.83397771,0.300868528 1.89652264,0.207118943 C2.03333967,0 2.02943061,0 4.57422741,0 C6.80239051,0 6.93920754,0.00399484289 7.04866116,0.0743070314 C7.14638761,0.132900522 7.34184052,0.496180162 8.14319742,2.1016418 L9.11655288,4.06257061 L8.67873838,5.39068973 C8.42855866,6.14459264 8.24874199,6.73834001 8.26437822,6.76568364 C8.28001445,6.79302726 8.55364852,7.16021314 8.86637316,7.57818004 C9.18300687,7.99614693 9.46054999,8.37895774 9.48400434,8.42583253 C9.58563985,8.6133317 9.53873115,8.76567477 9.13609817,9.57426494 C8.92109997,10.0078568 8.75301048,10.3828551 8.76082859,10.4062925 C8.78037388,10.4492611 10.1837257,12.0703476 10.3713605,12.261753 C10.4573598,12.3476902 10.4456326,12.2890967 10.2306344,11.4414442 C10.1055446,10.9375402 10,10.4883234 10,10.4414486 C10,10.3945738 10.1915438,9.96879444 10.4299964,9.49614029 L10.8599928,8.63286286 L10.4299964,7.76958544 C10.1915438,7.29693128 10,6.87115192 10,6.82427713 C10,6.77740233 10.199362,6.13678017 10.4456326,5.40240843 L10.8912652,4.06647684 L10.4456326,2.29695343 C10.203271,1.32430149 10,0.488367697 10,0.437586672 C10,0.386805647 10.0273634,0.296962295 10.0586359,0.234462572 C10.1876348,-0.0116300879 9.98436377,0 14.0654204,0 C18.0839321,0 17.9627513,-0.00772385519 18.1034774,0.207118943 C18.1660223,0.300868528 18.1699313,0.679773099 18.1699313,5.60553253 L18.1699313,10.8984778 L18.8696527,10.8984778 C19.2722857,10.8984778 19.6201919,10.918009 19.6827368,10.9414464 C19.9446437,11.0391022 20.0658245,11.2930073 19.964189,11.5312875 C19.9290075,11.6172246 18.5217466,12.8437817 15.1325932,15.7500188 C12.5017972,18.0039151 10.2931794,19.882813 10.2228163,19.9218753 C10.1524533,19.9648439 10.0547268,20 10,20 C9.94527319,20 9.84754674,19.9648439 9.77718369,19.9218753 Z" id="Path"></path>
                        </g>
                    </g>
                </g>
            </g>
        </g>
    </g>
</svg>