<?xml version="1.0" encoding="UTF-8"?>
<svg width="232px" height="44px" viewBox="0 0 232 44" version="1.1" xmlns="http://www.w3.org/2000/svg" xmlns:xlink="http://www.w3.org/1999/xlink">
    <title>DDD41762-26F8-4D90-96B9-62F99E4F4B81</title>
    <g id="Direct-Relief-Site" stroke="none" stroke-width="1" fill="none" fill-rule="evenodd">
        <g id="Full-Record" transform="translate(-225.000000, -44.000000)" fill-rule="nonzero">
            <g id="logo-directrelief" transform="translate(225.000000, 44.000000)">
                <path d="M57.1912044,29.890162 C57.1912044,32.8018655 59.2550087,33.1418416 61.0932306,33.1418416 C69.1960423,33.1418416 71.8573651,26.9795677 71.8573651,21.3441734 C71.8573651,14.2740026 67.3561698,9.169925 60.1166237,9.169925 C58.5793618,9.169925 57.8674015,9.28306548 57.1912044,9.32133359 L57.1912044,29.890162 Z M53.515861,12.1570555 C53.515861,8.75507657 51.751366,8.98080292 50.0638992,8.94308943 L50.0638992,7.96032016 C51.5279844,8.03519254 53.0267322,8.03519254 54.4902671,8.03519254 C56.0660431,8.03519254 58.2030242,7.96032016 60.9804394,7.96032016 C70.6964408,7.96032016 75.9838734,14.5008382 75.9838734,21.1938741 C75.9838734,24.9363837 73.8089284,34.3525556 60.5281741,34.3525556 C58.6167754,34.3525556 56.8539311,34.2771286 55.0916369,34.2771286 C53.4030697,34.2771286 51.751366,34.3159513 50.0638992,34.3525556 L50.0638992,33.3692317 C52.3158724,33.1418416 53.4030697,33.06586 53.515861,30.4952417 L53.515861,12.1570555 L53.515861,12.1570555 Z" id="Shape" fill="#FE5000"></path>
                <path d="M81.0165634,14.3998992 C80.041607,14.3998992 79.1794415,13.4920023 79.1794415,12.5097876 C79.1794415,11.5641772 80.0779203,10.6945484 81.0165634,10.6945484 C81.9926201,10.6945484 82.8553355,11.487641 82.8553355,12.5097876 C82.8553355,13.530825 82.0289334,14.3998992 81.0165634,14.3998992 Z M77.0028459,33.3692317 L77.7164567,33.3692317 C78.7673408,33.3692317 79.5161645,33.3692317 79.5161645,32.1213588 L79.5161645,21.8738262 C79.5161645,20.2099956 78.9544092,19.98316 77.566802,19.2272263 L77.566802,18.6227012 C79.3279958,18.0930485 81.4292142,17.3753829 81.5788689,17.2616878 C81.841865,17.1097246 82.0674475,17.0731203 82.2550656,17.0731203 C82.442134,17.0731203 82.517512,17.2988467 82.517512,17.6022184 L82.517512,32.1213588 C82.517512,33.3692317 83.3428136,33.3692317 84.3936978,33.3692317 L85.03028,33.3692317 L85.03028,34.3525556 C83.7543641,34.3525556 82.442134,34.2771286 81.0924911,34.2771286 C79.7422972,34.2771286 78.3915535,34.3159513 77.0028459,34.3525556 L77.0028459,33.3692317 L77.0028459,33.3692317 Z" id="Shape" fill="#FE5000"></path>
                <path d="M86.3392089,33.3692317 L87.3515789,33.3692317 C88.4019124,33.3692317 89.1523867,33.3692317 89.1523867,32.1213588 L89.1523867,21.4961366 C89.1523867,20.3242453 87.7647795,20.0979643 87.1997226,19.7940379 L87.1997226,19.2272263 C89.9402747,18.0558896 91.4395731,17.0731203 91.778497,17.0731203 C92.0018787,17.0731203 92.1163205,17.1851516 92.1163205,17.5645049 L92.1163205,20.9664839 L92.1900475,20.9664839 C93.1275901,19.4917754 94.7033661,17.0731203 96.9916521,17.0731203 C97.9291948,17.0731203 99.1291838,17.7153589 99.1291838,19.0763723 C99.1291838,20.0979643 98.416673,21.0041974 97.3663395,21.0041974 C96.2037641,21.0041974 96.2037641,20.0979643 94.8915349,20.0979643 C94.2533016,20.0979643 92.1531836,20.9664839 92.1531836,23.2348396 L92.1531836,32.1213588 C92.1531836,33.3692317 92.9025575,33.3692317 93.9534416,33.3692317 L96.0541094,33.3692317 L96.0541094,34.3525556 C93.9908553,34.3159513 92.4150793,34.2771286 90.8024403,34.2771286 C89.2651784,34.2771286 87.6888518,34.3159513 86.3392089,34.3525556 L86.3392089,33.3692317" id="Path" fill="#FE5000"></path>
                <path d="M109.110382,22.7057415 C110.047924,22.7057415 110.161266,22.2143568 110.161266,21.7612403 C110.161266,19.832306 108.998691,18.2816159 106.896923,18.2816159 C104.609187,18.2816159 103.033411,19.98316 102.584447,22.7057415 L109.110382,22.7057415 Z M102.472756,23.9159009 C102.396828,24.255877 102.396828,24.8237978 102.472756,26.1104935 C102.696137,29.7004853 104.984974,32.6510115 107.98467,32.6510115 C110.047924,32.6510115 111.660564,31.5157245 113.049272,30.1175522 L113.574164,30.6472049 C111.849283,32.9521649 109.710101,34.9204765 106.634477,34.9204765 C100.669196,34.9204765 99.4708583,29.0959602 99.4708583,26.6773051 C99.4708583,19.2649398 104.421568,17.0731203 107.048228,17.0731203 C110.086989,17.0731203 113.349131,19.0003907 113.385995,23.0091133 C113.385995,23.2348396 113.385995,23.4622298 113.349131,23.6885107 L113.011858,23.9159009 L102.472756,23.9159009 L102.472756,23.9159009 Z" id="Shape" fill="#FE5000"></path>
                <path d="M129.251043,30.9860717 C127.413372,33.1418416 124.900604,34.9204765 121.93722,34.9204765 C118.036845,34.9204765 114.472642,31.100876 114.472642,27.0921535 C114.472642,21.6087225 118.373568,17.0731203 123.775992,17.0731203 C125.689042,17.0731203 128.838942,17.6765362 128.838942,19.6814521 C128.838942,20.5505262 128.313501,21.3441734 127.413372,21.3441734 C125.837045,21.3441734 125.912973,18.2816159 122.387285,18.2816159 C119.162556,18.2816159 117.473988,21.9120943 117.473988,24.7849751 C117.473988,28.6811117 119.949893,32.1213588 124.038438,32.1213588 C125.951487,32.1213588 127.18999,31.4402975 128.614461,30.3449423 L129.251043,30.9860717" id="Path" fill="#FE5000"></path>
                <path d="M135.063368,29.7004853 C135.063368,32.1973404 136.415212,32.8772925 137.428682,32.8772925 C138.441052,32.8772925 139.190977,32.5373164 140.053692,31.7802735 L140.615447,32.3476398 C139.303218,33.7092078 137.652614,34.9204765 135.627324,34.9204765 C133.226246,34.9204765 132.064221,33.6326716 132.064221,31.4020294 L132.064221,19.6814521 L129.588316,19.6814521 L129.588316,19.0763723 C131.538229,17.5645049 132.701355,16.8451755 134.614404,13.7831726 L135.063368,13.7831726 L135.063368,17.6388227 L140.653961,17.6388227 L140.653961,19.6814521 L135.063368,19.6814521 L135.063368,29.7004853" id="Path" fill="#FE5000"></path>
                <path d="M153.485201,9.169925 C152.547659,9.169925 151.910526,9.28306548 151.233779,9.39676057 L151.233779,20.4756539 C151.796635,20.5882397 152.584523,20.6653306 153.221105,20.6653306 C157.836742,20.6653306 159.6359,17.6022184 159.6359,14.8785278 C159.6359,11.5896893 157.911019,9.169925 153.485201,9.169925 Z M151.233779,21.8738262 L151.233779,30.6472049 C151.233779,33.2932501 152.6599,33.3315182 154.647777,33.3692317 L154.647777,34.3525556 C152.848619,34.3525556 151.233779,34.2771286 149.584276,34.2771286 C147.782917,34.2771286 146.020623,34.3159513 144.144438,34.3525556 L144.144438,33.3692317 C146.020623,33.4829268 147.558435,32.9909876 147.558435,30.8357724 L147.558435,11.6656709 C147.558435,9.01907103 146.133414,8.98080292 144.144438,8.94308943 L144.144438,7.96032016 C146.208792,7.99747904 148.00795,8.03519254 149.846722,8.03519254 C151.160052,8.03519254 152.472282,7.96032016 154.872809,7.96032016 C161.963251,7.96032016 163.537926,11.9673788 163.537926,14.6522468 C163.537926,17.8667675 161.137398,20.2477091 158.211429,21.1178925 C161.624877,26.1476524 163.426786,29.173051 165.038324,30.9860717 C166.238863,32.3476398 167.364575,33.3692317 169.276524,33.3692317 L169.276524,34.3525556 C168.339531,34.3525556 167.401439,34.2771286 166.463896,34.2771286 C165.414112,34.2771286 164.325814,34.3159513 163.27493,34.3525556 C159.860932,30.5712233 157.349814,26.1476524 154.647777,21.8738262 L151.233779,21.8738262 L151.233779,21.8738262 Z" id="Shape" fill="#FE5000"></path>
                <path d="M177.568055,22.7057415 C178.507247,22.7057415 178.619489,22.2143568 178.619489,21.7612403 C178.619489,19.832306 177.457464,18.2816159 175.355696,18.2816159 C173.066859,18.2816159 171.492734,19.98316 171.041018,22.7057415 L177.568055,22.7057415 Z M170.929878,23.9159009 C170.854501,24.255877 170.854501,24.8237978 170.929878,26.1104935 C171.15546,29.7004853 173.441546,32.6510115 176.442893,32.6510115 C178.507247,32.6510115 180.120437,31.5157245 181.508044,30.1175522 L182.033487,30.6472049 C180.308056,32.9521649 178.167774,34.9204765 175.09325,34.9204765 C169.12797,34.9204765 167.929081,29.0959602 167.929081,26.6773051 C167.929081,19.2649398 172.880341,17.0731203 175.506451,17.0731203 C178.544111,17.0731203 181.806804,19.0003907 181.845318,23.0091133 C181.845318,23.2348396 181.845318,23.4622298 181.806804,23.6885107 L181.46898,23.9159009 L170.929878,23.9159009 L170.929878,23.9159009 Z" id="Shape" fill="#FE5000"></path>
                <path d="M182.847784,33.3692317 L183.560294,33.3692317 C184.610629,33.3692317 185.359452,33.3692317 185.359452,32.1213588 L185.359452,11.0605912 C185.359452,8.60200416 184.798247,8.52713178 183.374326,8.11117413 L183.374326,7.50498519 C184.872524,7.01470978 186.44885,6.33309384 187.236188,5.88108653 C187.648839,5.65314174 187.948698,5.46401966 188.06149,5.46401966 C188.285422,5.46401966 188.361349,5.69085523 188.361349,5.99256318 L188.361349,32.1213588 C188.361349,33.3692317 189.186101,33.3692317 190.238086,33.3692317 L190.874668,33.3692317 L190.874668,34.3525556 C189.599302,34.3525556 188.285422,34.2771286 186.936328,34.2771286 C185.586686,34.2771286 184.235941,34.3159513 182.847784,34.3525556 L182.847784,33.3692317" id="Path" fill="#FE5000"></path>
                <path d="M196.421796,14.3998992 C195.446839,14.3998992 194.584674,13.4920023 194.584674,12.5097876 C194.584674,11.5641772 195.484803,10.6945484 196.421796,10.6945484 C197.397852,10.6945484 198.260018,11.487641 198.260018,12.5097876 C198.260018,13.530825 197.434166,14.3998992 196.421796,14.3998992 Z M192.408079,33.3692317 L193.120039,33.3692317 C194.172024,33.3692317 194.920847,33.3692317 194.920847,32.1213588 L194.920847,21.8738262 C194.920847,20.2099956 194.359092,19.98316 192.971485,19.2272263 L192.971485,18.6227012 C194.733779,18.0930485 196.833897,17.3753829 196.985201,17.2616878 C197.247097,17.1097246 197.47323,17.0731203 197.659198,17.0731203 C197.845716,17.0731203 197.921644,17.2988467 197.921644,17.6022184 L197.921644,32.1213588 C197.921644,33.3692317 198.746396,33.3692317 199.79838,33.3692317 L200.434962,33.3692317 L200.434962,34.3525556 C199.160147,34.3525556 197.845716,34.2771286 196.497174,34.2771286 C195.14588,34.2771286 193.796236,34.3159513 192.408079,34.3525556 L192.408079,33.3692317 L192.408079,33.3692317 Z" id="Shape" fill="#FE5000"></path>
                <path d="M210.642843,22.7057415 C211.579285,22.7057415 211.692627,22.2143568 211.692627,21.7612403 C211.692627,19.832306 210.529503,18.2816159 208.428284,18.2816159 C206.142199,18.2816159 204.565872,19.98316 204.115808,22.7057415 L210.642843,22.7057415 Z M204.001916,23.9159009 C203.926539,24.255877 203.926539,24.8237978 204.001916,26.1104935 C204.226398,29.7004853 206.515235,32.6510115 209.517132,32.6510115 C211.579285,32.6510115 213.193026,31.5157245 214.581733,30.1175522 L215.105525,30.6472049 C213.380644,32.9521649 211.241462,34.9204765 208.166388,34.9204765 C202.200557,34.9204765 201.002219,29.0959602 201.002219,26.6773051 C201.002219,19.2649398 205.952929,17.0731203 208.579589,17.0731203 C211.61725,17.0731203 214.881593,19.0003907 214.919007,23.0091133 C214.919007,23.2348396 214.919007,23.4622298 214.881593,23.6885107 L214.543219,23.9159009 L204.001916,23.9159009 L204.001916,23.9159009 Z" id="Shape" fill="#FE5000"></path>
                <path d="M226.957407,17.6388227 L226.957407,19.6814521 L222.193215,19.6814521 L222.193215,32.4613348 C222.193215,33.3692317 223.130758,33.3692317 223.95661,33.3692317 L225.645177,33.3692317 L225.645177,34.3525556 C224.031988,34.3159513 222.456212,34.2771286 220.843022,34.2771286 C219.30576,34.2771286 217.729434,34.3159513 216.191072,34.3525556 L216.191072,33.3692317 L217.617743,33.3692317 C219.00535,33.3692317 219.191869,32.7269931 219.191869,32.1579631 L219.191869,19.6814521 L216.566859,19.6814521 L216.566859,19.0381042 C217.429024,18.5101153 219.191869,17.9421945 219.191869,16.6560534 C219.191869,14.1985757 219.867516,10.4921157 222.193215,8.07290603 C224.25647,5.9176908 226.206933,5.46401966 226.732925,5.46401966 C227.370058,5.46401966 228.420942,5.61653747 228.420942,7.01470978 C228.420942,7.84717968 228.007191,8.48886368 227.106511,8.48886368 C225.9819,8.48886368 225.9819,7.96032016 224.707085,7.96032016 C222.419349,7.96032016 222.193215,10.6817924 222.193215,12.2324825 L222.193215,17.6388227 L226.957407,17.6388227" id="Path" fill="#FE5000"></path>
                <g id="Group">
                    <polyline id="Path" fill="#FFA300" points="3.22032709 29.8596584 3.05141534 41.2180753 12.4004326 42.2734985 19.2273279 42.9817357 23.5728163 42.4409907 24.5686803 35.8866074 23.8259088 30.2129451 23.6289368 23.2603517 13.7577787 20.7917817 4.00326326 20.6259532 3.76227518 24.769446 3.22032709 29.8596584"></polyline>
                    <path d="M22.2347272,19.9437827 L30.3545951,18.8539737 L36.7143697,18.329867 L39.6348372,19.5938237 L40.7159824,30.0643096 L40.9976854,35.8067436 L40.3247894,38.3280015 C40.3247894,38.3280015 35.5154815,38.4666541 34.6131517,38.584786 C33.7124725,38.7051364 28.1334333,39.0550955 28.1334333,39.0550955 L23.9260454,39.6215525 C23.9260454,39.6215525 22.332663,39.6812504 22.0685664,37.7279133 C21.8138233,35.7729123 20.5169993,32.7159009 20.1357099,29.5152455 C19.741766,26.1992311 21.3318472,20.0669062 21.3318472,20.0669062" id="Path" fill="#FFBE4C"></path>
                    <g id="Path">
                        <path d="M16.9186841,22.1577866 L23.9733627,22.1089809 C23.9733627,22.1089809 28.3265538,22.1733157 29.3257191,22.2759186 C30.3188321,22.3829583 35.7179555,22.1544589 35.7179555,22.1544589 C35.7179555,22.1544589 36.0491766,22.1916178 36.2973173,19.8051301 C36.635691,16.5706435 36.7638878,16.0398815 37.4543902,12.3855549 C37.6365068,11.4282977 37.8565872,10.2458688 38.1327882,8.74453898 L37.9248122,4.29878364 L37.0576952,3.00155039 L30.212093,1.06207853 L24.2374592,0.425940631 L20.256204,1.34343493e-16 L17.1365637,10.5226193 L17.6768612,16.9233756 L16.9186841,22.1577866" fill="#FFA300"></path>
                        <path d="M0,4.73470725 L2.34110571,3.95714376 L9.70994915,3.9216487 L16.2980572,4.62433982 L20.2446498,5.04750741 L20.7898991,13.2296716 L21.6008955,16.9671898 L21.7186385,22.4256633 L11.2367572,23.6862923 L3.64398194,24.5398374 L0.363132731,23.5908994 C0.363132731,23.5908994 0.425305456,19.5965967 0.240437884,18.133535 C0.0071526144,16.3005483 0,4.73470725 0,4.73470725" fill="#FE5000"></path>
                    </g>
                    <path d="M1.84317371,11.9263377 C3.66488958,11.7022752 8.59744251,11.4604651 12.294794,12.8575282 C15.9932458,14.2584736 18.6996851,15.783097 19.1348941,16.5706435 C19.5684526,17.3653999 21.8996547,19.9493288 21.4231805,20.179492 C20.9516582,20.408546 13.9250398,20.6087603 13.1151438,20.8794101 C12.3118502,21.1517237 10.7800903,21.0008697 10.7800903,21.0008697 L6.7537186,18.2899351 L6.27779464,17.1640764 L5.91191091,16.3288334 L1.84317371,11.9263377" id="Path" fill="#FFFFFE"></path>
                    <path d="M38.1993625,7.75677822 C33.2359983,8.37849625 27.7576459,11.5985631 26.8668703,12.5597025 C25.9749943,13.5152959 24.5917887,15.7952984 24.1373226,16.2844646 C23.2498482,17.2433856 21.9838355,19.2649398 23.3070691,19.0952291 C24.6330538,18.9316191 28.8701525,17.8922796 28.8701525,17.8922796 L33.9358541,15.3981975 C33.9358541,15.3981975 37.2634704,13.7970379 35.1352926,12.8786034 C34.3683122,12.5486103 39.1864233,10.3395979 39.1864233,10.3395979 L38.1993625,7.75677822" id="Path" fill="#FFFFFE"></path>
                    <path d="M20.0652842,13.0383311 C20.0652842,13.0383311 22.321659,13.010046 22.6594824,13.7254932 C22.9956553,14.4403857 23.120551,15.4370202 23.120551,15.4370202 L22.2270244,16.3094221 C22.2270244,16.3094221 19.5079305,16.6477343 20.0652842,13.0383311" id="Path" fill="#FFFFFE"></path>
                    <polyline id="Path" fill="#FFFFFE" points="16.5825112 17.2933006 19.750019 20.3159261 20.9158951 22.8382933 20.250702 26.0273019 18.4174319 35.602647 17.7489375 44 20.7491842 35.9420684 21.5832891 26.7011533 22.0817713 23.6757547 23.5865713 20.3159261 28.4162366 17.6305036 22.0817713 19.645957 17.5844274 17.1258083 16.5825112 17.2933006"></polyline>
                    <path d="M25.0049898,19.3464675 C25.0214958,19.40692 21.6201525,19.9204891 17.1761782,22.3818491 C16.2133263,23.0961871 14.7536427,23.8837335 14.6568073,25.4261045 C14.4966988,27.1049096 16.7745314,27.2274784 18.1126205,27.3139976 C19.6691394,27.3639125 21.2927829,27.1991933 22.8933179,26.8547804 C24.0668969,26.7854541 27.1111596,25.3340392 25.9293276,25.3944917 C23.1067959,24.3479423 19.3923883,26.2840865 17.9139979,28.61955 C16.0014988,31.4430705 20.9780678,32.0714439 22.5428398,31.0847923 C23.8644229,30.0254869 20.0152159,31.6249827 19.2014685,32.5545094 C17.7626926,33.5661184 17.391857,34.3841684 17.1244593,34.7579757 C16.9643508,34.78737 17.6278933,32.4541249 20.8685778,30.59729 C21.4495902,30.2822714 22.9692457,29.2323943 23.5717159,30.5551396 C23.752732,32.1041659 21.9073575,32.3565135 20.8548228,32.4951661 C19.6328261,32.5295519 18.1901988,32.4385958 17.0534833,31.3748535 C15.8067276,30.0698557 16.6837482,28.1070902 17.6658572,27.1376316 C19.6718904,24.9979454 22.8520528,23.2930737 26.2792555,24.4045125 L26.8894285,24.7372786 C27.0550391,25.063944 26.9427981,24.2397933 27.3361918,25.5170606 L27.1166616,25.9967984 C26.7518783,26.4887376 26.3386772,26.7022626 25.9546369,26.8991492 C25.1783031,27.2640827 24.3953669,27.4981282 23.6102299,27.6728304 C22.034454,28.0211256 20.4377704,28.1902817 18.8218297,28.1719796 C17.29062,27.9706561 15.378121,28.3627655 14.0284777,26.271885 C13.6785497,23.8121888 15.6213099,22.8704607 16.795439,22.0257894 C19.5491956,20.5610638 22.3387152,19.8278692 25.0049898,19.3464675" id="Path" fill="#FFFFFE"></path>
                </g>
                <path d="M39.7470782,4.86060377 L39.9176406,4.86060377 C40.1168134,4.86060377 40.2873757,4.786286 40.2873757,4.59882776 C40.2873757,4.46683053 40.1877893,4.3348333 39.9176406,4.3348333 C39.8389618,4.3348333 39.7855923,4.33927018 39.7470782,4.34592551 L39.7470782,4.86060377 Z M39.7470782,5.70804815 L39.5033392,5.70804815 L39.5033392,4.18065167 C39.6276846,4.16234953 39.7503794,4.14404739 39.9319458,4.14404739 C40.1597291,4.14404739 40.309934,4.19451692 40.3996168,4.25996093 C40.4920505,4.32540493 40.5421188,4.42800781 40.5421188,4.5794164 C40.5421188,4.77796685 40.4051188,4.89831726 40.2439098,4.94712296 L40.2439098,4.95710594 C40.3748577,4.98372723 40.4656409,5.10407765 40.4964522,5.33146783 C40.534416,5.56717716 40.5701791,5.65757862 40.5932875,5.70804815 L40.3396448,5.70804815 C40.3055324,5.65757862 40.2686689,5.51337997 40.238958,5.31593874 C40.2009942,5.12515283 40.1058094,5.04917124 39.9121386,5.04917124 L39.7470782,5.04917124 L39.7470782,5.70804815 Z M39.9952189,3.75692948 C39.4004515,3.75692948 38.9140738,4.27271696 38.9140738,4.91384635 C38.9140738,5.56107645 39.4004515,6.07187961 40.0023716,6.07187961 C40.6075928,6.07409088 41.0873681,5.56107645 41.0873681,4.91717401 C41.0873681,4.27271696 40.6075928,3.75692948 40.0023716,3.75692948 L39.9952189,3.75692948 Z M40.0023716,3.54562299 C40.7451431,3.54562299 41.333308,4.14792967 41.333308,4.91384635 C41.333308,5.68309069 40.7451431,6.28484276 39.9952189,6.28484276 C39.2557487,6.28484276 38.654929,5.68309069 38.654929,4.91384635 C38.654929,4.14792967 39.2557487,3.54562299 39.9952189,3.54562299 L40.0023716,3.54562299 L40.0023716,3.54562299 Z" id="Shape" fill="#FFA300"></path>
                <path d="M230.41432,4.86060377 L230.584883,4.86060377 C230.782955,4.86060377 230.953517,4.786286 230.953517,4.59882776 C230.953517,4.46683053 230.855032,4.3348333 230.584883,4.3348333 C230.506204,4.3348333 230.452285,4.33927018 230.41432,4.34592551 L230.41432,4.86060377 Z M230.41432,5.70804815 L230.170582,5.70804815 L230.170582,4.18065167 C230.294927,4.16234953 230.418172,4.14404739 230.598638,4.14404739 C230.826971,4.14404739 230.976076,4.19451692 231.066859,4.25996093 C231.159293,4.32595954 231.208811,4.42800781 231.208811,4.5794164 C231.208811,4.77796685 231.071261,4.89887187 230.911152,4.94712296 L230.911152,4.95710594 C231.0421,4.98372723 231.132333,5.10463226 231.163694,5.33146783 C231.201659,5.56717716 231.236321,5.65757862 231.26053,5.70804815 L231.006337,5.70804815 C230.972775,5.65757862 230.935911,5.51337997 230.90565,5.31593874 C230.868237,5.12515283 230.772502,5.04917124 230.578831,5.04917124 L230.41432,5.04917124 L230.41432,5.70804815 Z M230.662462,3.75692948 C230.068244,3.75692948 229.581316,4.27271696 229.581316,4.91384635 C229.581316,5.56163106 230.068244,6.07187962 230.669614,6.07187962 C231.273735,6.07409088 231.754061,5.56163106 231.754061,4.91717401 C231.754061,4.27271696 231.273735,3.75692948 230.669614,3.75692948 L230.662462,3.75692948 Z M230.669614,3.54562299 C231.412385,3.54562299 232,4.14792967 232,4.91384635 C232,5.68309069 231.412385,6.28484276 230.662462,6.28484276 C229.922441,6.28484276 229.321071,5.68309069 229.321071,4.91384635 C229.321071,4.14792967 229.922441,3.54562299 230.662462,3.54562299 L230.669614,3.54562299 L230.669614,3.54562299 Z" id="Shape" fill="#FE5000"></path>
            </g>
        </g>
    </g>
</svg>