<?xml version="1.0" encoding="UTF-8"?>
<svg width="27px" height="24px" viewBox="0 0 27 24" version="1.1" xmlns="http://www.w3.org/2000/svg" xmlns:xlink="http://www.w3.org/1999/xlink">
    <title>723FB2F3-348B-4FE9-AB75-606EDCEC5EEA</title>
    <g id="Direct-Relief-Site" stroke="none" stroke-width="1" fill="none" fill-rule="evenodd" opacity="0.5" stroke-linecap="round" stroke-linejoin="round">
        <g id="Results-&amp;-Filters" transform="translate(-845.000000, -374.000000)" stroke="#00021F" stroke-width="2.2">
            <g id="Group-18" transform="translate(423.000000, 375.000000)">
                <g id="hazard" transform="translate(424.000000, 1.000000)">
                    <path d="M9.61782501,1.06364428 L0.295005007,16.6855853 C-0.0961333796,17.3654819 -0.0984687009,18.2026448 0.28887035,18.8847292 C0.676209401,19.5668136 1.39504495,19.9913712 2.17718,20 L20.82282,20 C21.604955,19.9913712 22.3237906,19.5668136 22.7111296,18.8847292 C23.0984687,18.2026448 23.0961334,17.3654819 22.704995,16.6855853 L13.382175,1.06364428 C12.9831036,0.403281762 12.2694752,0 11.5,0 C10.7305248,0 10.0168964,0.403281762 9.61782501,1.06364428 Z" id="Path"></path>
                    <line x1="11.5" y1="6.74234139" x2="11.5" y2="11.1615609" id="Path"></line>
                    <line x1="11.5" y1="15.5807805" x2="11.5110069" y2="15.5807805" id="Path"></line>
                </g>
            </g>
        </g>
    </g>
</svg>