<?xml version="1.0" encoding="UTF-8"?>
<svg width="26px" height="19px" viewBox="0 0 26 19" version="1.1" xmlns="http://www.w3.org/2000/svg" xmlns:xlink="http://www.w3.org/1999/xlink">
    <title>C910974A-4608-4034-927F-A7BEB01C820D</title>
    <g id="Page-1" stroke="none" stroke-width="1" fill="none" fill-rule="evenodd" opacity="0.8">
        <g id="KWG---Results-&amp;-Filters---Icon-Addition" transform="translate(-751.000000, -532.000000)" fill="#00021F" fill-rule="nonzero">
            <g id="Group-17" transform="translate(751.000000, 532.000000)">
                <g id="Group" transform="translate(13.000000, 9.500000) scale(-1, 1) rotate(-180.000000) translate(-13.000000, -9.500000) ">
                    <path d="M6.52994442,18.9667303 C5.23987733,18.8054296 4.02732499,18.0823578 3.285398,17.0366847 C2.34414733,15.7184691 2.13375012,14.0275935 2.71511083,12.5147047 C3.16358909,11.3411035 4.24879574,10.26762 5.439201,9.8170906 C6.2863266,9.50005141 7.38260679,9.43330632 8.2463427,9.65578996 C9.09900507,9.87271151 9.97935129,10.4066722 10.5828591,11.0685611 C12.5428752,13.2266524 12.1110072,16.6306521 9.67482901,18.2269722 C8.76126218,18.827678 7.593004,19.1002205 6.52994442,18.9667303 Z" id="Path"></path>
                    <path d="M17.1605402,18.9667303 C15.8704731,18.8054296 14.6579208,18.0823578 13.9159938,17.0366847 C12.9747431,15.7184691 12.7643459,14.0275935 13.3457066,12.5147047 C13.7941849,11.3411035 14.8793915,10.26762 16.0697968,9.8170906 C16.9169224,9.50005141 18.0132026,9.43330632 18.8769385,9.65578996 C19.7296009,9.87271151 20.6099471,10.4066722 21.2134549,11.0685611 C23.173471,13.2266524 22.741603,16.6306521 20.3054248,18.2269722 C19.391858,18.827678 18.2235998,19.1002205 17.1605402,18.9667303 Z" id="Path"></path>
                    <path d="M5.85445865,8.28195348 C2.78708882,7.92597966 0.400741533,5.50090799 0.0574618773,2.37501285 C-0.0200528837,1.67975148 -0.0200528837,1.22366002 0.0629986459,0.90105874 C0.151586944,0.545084917 0.539160749,0.155738548 0.893513942,0.0667450919 C1.07622731,0.016686273 2.05623536,0 4.23218543,0 C7.13898897,0 7.3106288,0.00556209099 7.28294496,0.100117638 C7.10023159,0.72863392 7.06701098,1.16803911 7.13898897,1.95785603 C7.33277587,4.1381957 8.21312209,6.15167263 9.62499809,7.63118884 C9.75788054,7.7758032 9.86307915,7.90929339 9.84646884,7.92041757 C9.78002762,7.99272475 8.7225048,8.23189466 8.27402654,8.28751557 C7.68712907,8.35426067 6.45796643,8.34869857 5.85445865,8.28195348 Z" id="Path"></path>
                    <path d="M15.970135,8.30976394 C13.8883099,8.0872803 12.0943969,7.08054183 10.870771,5.45084917 C10.0291822,4.33286888 9.4644318,2.68092786 9.4644318,1.32933975 C9.4644318,0.823189466 9.66375547,0.433843097 10.0457925,0.194673185 L10.3115574,0.0278104549 L17.5979449,0.011124182 C25.8311199,-0.00556209099 25.2829798,-0.0333725459 25.6760904,0.417156824 C25.9861494,0.773130648 26.0470539,1.0512352 25.9695391,1.81880375 C25.8311199,3.19820232 25.3937152,4.36067934 24.6130308,5.42303871 C23.5665815,6.84137192 22.0882643,7.79805157 20.3275719,8.18183585 C19.8514098,8.28751557 19.5801081,8.29863976 17.9910555,8.31532603 C16.9999739,8.32088812 16.0919439,8.32088812 15.970135,8.30976394 Z" id="Path"></path>
                </g>
            </g>
        </g>
    </g>
</svg>