<svg xmlns="http://www.w3.org/2000/svg" viewBox="0 0 40 40"><defs><style>.cls-1{fill:#1b699e;}.cls-2{fill:#edf2f7;}</style></defs><title>Tekengebied 12</title><g id="Laag_2" data-name="Laag 2"><circle class="cls-1" cx="20" cy="20" r="20"/><path class="cls-2" d="M30.71,26.14a1.18,1.18,0,0,0-.83.29,1,1,0,0,0-.31.76,1,1,0,0,0,.15.51,2.14,2.14,0,0,0,.62.58,2.76,2.76,0,0,1,.56.46A.46.46,0,0,1,31,29a.37.37,0,0,1-.13.29.5.5,0,0,1-.34.11,2,2,0,0,1-1.12-.54l-.12.66a2.16,2.16,0,0,0,1.26.48,1.12,1.12,0,0,0,.81-.3,1,1,0,0,0,.32-.78,1,1,0,0,0-.16-.54,2.16,2.16,0,0,0-.64-.58,3,3,0,0,1-.56-.43.37.37,0,0,1-.09-.22.34.34,0,0,1,.14-.27.55.55,0,0,1,.35-.11,1.92,1.92,0,0,1,1.09.48v-.72a2,2,0,0,0-1.1-.38m-5,0a1.18,1.18,0,0,0-.83.29,1,1,0,0,0-.31.76,1,1,0,0,0,.15.51,2.14,2.14,0,0,0,.62.58,2.76,2.76,0,0,1,.56.46.46.46,0,0,1,.1.27.37.37,0,0,1-.13.29.5.5,0,0,1-.34.11,2,2,0,0,1-1.12-.54l-.12.66A2.16,2.16,0,0,0,25.5,30a1.12,1.12,0,0,0,.81-.3,1,1,0,0,0,.32-.78,1,1,0,0,0-.16-.54,2.16,2.16,0,0,0-.64-.58,3,3,0,0,1-.56-.43.37.37,0,0,1-.09-.22.34.34,0,0,1,.14-.27.55.55,0,0,1,.35-.11,1.92,1.92,0,0,1,1.09.48v-.72a2,2,0,0,0-1.1-.38m-5.24.56a.58.58,0,0,1,.48.22,1,1,0,0,1,.17.6H19.55q.27-.82.87-.82m0,2.72a.91.91,0,0,1-.69-.29,1.11,1.11,0,0,1-.27-.79,2,2,0,0,1,0-.35h2.27a2.51,2.51,0,0,0,0-.34,1.62,1.62,0,0,0-.37-1.1,1.17,1.17,0,0,0-.92-.42,1.53,1.53,0,0,0-1.22.61,2.27,2.27,0,0,0-.5,1.49,1.88,1.88,0,0,0,.42,1.28,1.39,1.39,0,0,0,1.1.48,2,2,0,0,0,1.21-.41l.1-.66a2.11,2.11,0,0,1-1.18.49m-5.79-3.18-.51,3.63h.69l.28-2a1.63,1.63,0,0,1,.23-.4,1.58,1.58,0,0,1,.38-.43.66.66,0,0,1,.36-.1.86.86,0,0,1,.42.12v-.78a.8.8,0,0,0-.3-.06.7.7,0,0,0-.45.15,3.15,3.15,0,0,0-.51.61l0,0,.11-.69ZM10,25a1.06,1.06,0,0,1,.74.24.83.83,0,0,1,.26.64,1,1,0,0,1-.28.71,1,1,0,0,1-.78.29H9.37L9.63,25ZM8.19,29.89H9l.32-2.33h.66a1.69,1.69,0,0,0,1.3-.49,1.61,1.61,0,0,0,.46-1.13,1.45,1.45,0,0,0-.47-1.17,2,2,0,0,0-1.32-.39H9Z"/><path class="cls-2" d="M28.25,10a4,4,0,0,0-2.63.91,2.82,2.82,0,0,0-1.12,2.26,3.4,3.4,0,0,0,.39,1.55,6.44,6.44,0,0,0,1.69,1.84,7.8,7.8,0,0,1,1.58,1.53,1.81,1.81,0,0,1,.28.92,1.29,1.29,0,0,1-.55,1.1,2,2,0,0,1-1.17.4A5.08,5.08,0,0,1,24,19.4l-.24,1.71a5.55,5.55,0,0,0,2.82.83A3.46,3.46,0,0,0,29.06,21,2.9,2.9,0,0,0,30,18.88a3.34,3.34,0,0,0-.41-1.57,6.54,6.54,0,0,0-1.71-1.82A8.1,8.1,0,0,1,26.33,14a1.58,1.58,0,0,1-.27-.83,1.6,1.6,0,0,1,.56-1.28,2.2,2.2,0,0,1,1.49-.48,3.63,3.63,0,0,1,2,.62l.23-1.59A5.41,5.41,0,0,0,28.25,10M15.52,19.66a3.75,3.75,0,0,1-.71-2.41,7.46,7.46,0,0,1,1.13-4.06,3.37,3.37,0,0,1,2.93-1.8,2.28,2.28,0,0,1,1.87.85,3.64,3.64,0,0,1,.69,2.36,7.22,7.22,0,0,1-1.2,4.2,3.41,3.41,0,0,1-2.81,1.74,2.31,2.31,0,0,1-1.9-.88m-.7-7.49A8,8,0,0,0,13.24,17a5.27,5.27,0,0,0,1.17,3.53,3.74,3.74,0,0,0,3,1.38,5,5,0,0,0,4-2,7.68,7.68,0,0,0,1.66-5,5.3,5.3,0,0,0-1.14-3.54,3.71,3.71,0,0,0-3-1.35,4.84,4.84,0,0,0-4.06,2.17m-3.57-2L9.62,21.8h1.6l1.64-11.65Z"/></g></svg>